<svg height="1024" viewBox="0 0 965.0002 1024" width="965.0002" xmlns="http://www.w3.org/2000/svg"><path d="m185 .15 730 159.85h79v864h-828a52 52 0 0 1 -52-52v-217.7079l69.4662-751.8812z" fill="#36697f" transform="translate(-29)"/><path d="m156 0h686a52 52 0 0 1 52 52v668a0 0 0 0 1 0 0h-738a0 0 0 0 1 0 0v-720a0 0 0 0 1 0 0z" fill="#37a5cc"/><path d="m0 814 156-94v-720l-156 94z" fill="#7dc6dd"/><g fill="#fff" transform="translate(-29)"><path d="m453.144 909.0781h-45.36l-8.4248 33.0489h-37.584l43.2-151.2022h50.3291l45.5757 151.2022h-38.4479zm-23.1123-93.3125-15.3359 65.2324h31.1035z"/><path d="m572.3516 881.8613v60.2657h-37.8v-60.0489l-47.7376-91.1533h39.746l27.6484 63.7207 27.4316-63.7207h38.233z"/><path d="m698.2773 909.0781h-45.36l-8.4248 33.0489h-37.584l43.2-151.2022h50.3291l45.5761 151.2022h-38.4483zm-23.1123-93.3125-15.3359 65.2324h31.1035z"/><path d="m759.7764 161.1221v399.0049h-94.6211v-257.6436l-66.6905 257.0732v.57h-94.0517l-70.6807-267.903v267.9034h-85.501v-399.0049h125.4014l80.3711 320.3437 84.3613-319.2041-.57-1.14z"/></g></svg>